<svg width="103" height="29" viewBox="0 0 103 29" fill="none" xmlns="http://www.w3.org/2000/svg">
<g clip-path="url(#clip0_224_2847)">
<path d="M96.2732 11.0179H84.7036C83.4256 11.0179 82.3896 12.0573 82.3896 13.3394V20.3037C82.3896 21.5858 83.4256 22.6251 84.7036 22.6251H96.2732C97.5511 22.6251 98.5871 21.5858 98.5871 20.3037V13.3394C98.5871 12.0573 97.5511 11.0179 96.2732 11.0179Z" stroke="#333333" stroke-width="2" stroke-linecap="round" stroke-linejoin="round"/>
<path d="M90.4887 19.1429C91.7667 19.1429 92.8027 18.1036 92.8027 16.8215C92.8027 15.5394 91.7667 14.5001 90.4887 14.5001C89.2108 14.5001 88.1748 15.5394 88.1748 16.8215C88.1748 18.1036 89.2108 19.1429 90.4887 19.1429Z" stroke="#333333" stroke-width="2" stroke-linecap="round" stroke-linejoin="round"/>
<path d="M93.9592 11.0179V8.6965C93.9592 8.08081 93.7154 7.49035 93.2814 7.05499C92.8475 6.61964 92.2589 6.37506 91.6452 6.37506H80.0756C79.462 6.37506 78.8734 6.61964 78.4395 7.05499C78.0055 7.49035 77.7617 8.08081 77.7617 8.6965V15.6608C77.7617 16.2765 78.0055 16.8669 78.4395 17.3023C78.8734 17.7377 79.462 17.9822 80.0756 17.9822H82.3896" stroke="#333333" stroke-width="2" stroke-linecap="round" stroke-linejoin="round"/>
</g>
<path d="M9.24098 9.43075V17.8307H8.04098V14.0867H3.21698V17.8307H2.01698V9.43075H3.21698V13.0427H8.04098V9.43075H9.24098ZM14.3367 11.4107C15.2167 11.4107 15.8887 11.6267 16.3527 12.0587C16.8247 12.4907 17.0607 13.1347 17.0607 13.9907V17.8307H15.9687V16.9907C15.7767 17.2867 15.5007 17.5147 15.1407 17.6747C14.7887 17.8267 14.3687 17.9027 13.8807 17.9027C13.1687 17.9027 12.5967 17.7307 12.1647 17.3867C11.7407 17.0427 11.5287 16.5907 11.5287 16.0307C11.5287 15.4707 11.7327 15.0227 12.1407 14.6867C12.5487 14.3427 13.1967 14.1707 14.0847 14.1707H15.9087V13.9427C15.9087 13.4467 15.7647 13.0667 15.4767 12.8027C15.1887 12.5387 14.7647 12.4067 14.2047 12.4067C13.8287 12.4067 13.4607 12.4707 13.1007 12.5987C12.7407 12.7187 12.4367 12.8827 12.1887 13.0907L11.7087 12.2267C12.0367 11.9627 12.4287 11.7627 12.8847 11.6267C13.3407 11.4827 13.8247 11.4107 14.3367 11.4107ZM14.0727 17.0147C14.5127 17.0147 14.8927 16.9187 15.2127 16.7267C15.5327 16.5267 15.7647 16.2467 15.9087 15.8867V14.9987H14.1327C13.1567 14.9987 12.6687 15.3267 12.6687 15.9827C12.6687 16.3027 12.7927 16.5547 13.0407 16.7387C13.2887 16.9227 13.6327 17.0147 14.0727 17.0147ZM24.9951 11.4707V17.8307H23.8431V12.4787H21.1071L21.0351 13.8947C20.9951 14.7507 20.9191 15.4667 20.8071 16.0427C20.6951 16.6107 20.5111 17.0667 20.2551 17.4107C19.9991 17.7547 19.6431 17.9267 19.1871 17.9267C18.9791 17.9267 18.7431 17.8907 18.4791 17.8187L18.5511 16.8467C18.6551 16.8707 18.7511 16.8827 18.8391 16.8827C19.1591 16.8827 19.3991 16.7427 19.5591 16.4627C19.7191 16.1827 19.8231 15.8507 19.8711 15.4667C19.9191 15.0827 19.9631 14.5347 20.0031 13.8227L20.1111 11.4707H24.9951ZM27.6226 11.4707H28.7746V16.1027L32.6746 11.4707H33.7186V17.8307H32.5666V13.1987L28.6786 17.8307H27.6226V11.4707ZM41.4307 11.4707V17.8307H40.2787V15.2627C39.5907 15.5827 38.9067 15.7427 38.2267 15.7427C37.4347 15.7427 36.8227 15.5587 36.3907 15.1907C35.9587 14.8227 35.7427 14.2707 35.7427 13.5347V11.4707H36.8947V13.4627C36.8947 13.9027 37.0307 14.2347 37.3027 14.4587C37.5827 14.6827 37.9707 14.7947 38.4667 14.7947C39.0267 14.7947 39.6307 14.6547 40.2787 14.3747V11.4707H41.4307ZM44.0672 11.4707H45.2192V14.1707H48.8432V11.4707H49.9952V17.8307H48.8432V15.1667H45.2192V17.8307H44.0672V11.4707ZM55.5031 13.6307C56.3031 13.6387 56.9151 13.8227 57.3391 14.1827C57.7631 14.5427 57.9751 15.0507 57.9751 15.7067C57.9751 16.3947 57.7431 16.9267 57.2791 17.3027C56.8231 17.6707 56.1671 17.8507 55.3111 17.8427L52.6351 17.8307V11.4707H53.7871V13.6187L55.5031 13.6307ZM58.9231 11.4707H60.0751V17.8307H58.9231V11.4707ZM55.2271 16.9667C55.7471 16.9747 56.1391 16.8707 56.4031 16.6547C56.6751 16.4387 56.8111 16.1187 56.8111 15.6947C56.8111 15.2787 56.6791 14.9747 56.4151 14.7827C56.1511 14.5907 55.7551 14.4907 55.2271 14.4827L53.7871 14.4587V16.9547L55.2271 16.9667ZM68.4628 14.6867C68.4628 14.7747 68.4548 14.8907 68.4388 15.0347H63.2788C63.3508 15.5947 63.5948 16.0467 64.0108 16.3907C64.4348 16.7267 64.9588 16.8947 65.5828 16.8947C66.3428 16.8947 66.9548 16.6387 67.4188 16.1267L68.0548 16.8707C67.7668 17.2067 67.4068 17.4627 66.9748 17.6387C66.5508 17.8147 66.0748 17.9027 65.5468 17.9027C64.8748 17.9027 64.2788 17.7667 63.7588 17.4947C63.2388 17.2147 62.8348 16.8267 62.5468 16.3307C62.2668 15.8347 62.1268 15.2747 62.1268 14.6507C62.1268 14.0347 62.2628 13.4787 62.5348 12.9827C62.8148 12.4867 63.1948 12.1027 63.6748 11.8307C64.1628 11.5507 64.7108 11.4107 65.3188 11.4107C65.9268 11.4107 66.4668 11.5507 66.9388 11.8307C67.4188 12.1027 67.7908 12.4867 68.0548 12.9827C68.3268 13.4787 68.4628 14.0467 68.4628 14.6867ZM65.3188 12.3827C64.7668 12.3827 64.3028 12.5507 63.9268 12.8867C63.5588 13.2227 63.3428 13.6627 63.2788 14.2067H67.3588C67.2948 13.6707 67.0748 13.2347 66.6988 12.8987C66.3308 12.5547 65.8708 12.3827 65.3188 12.3827Z" fill="#333333"/>
<defs>
<clipPath id="clip0_224_2847">
<rect width="27.7671" height="27.8572" fill="white" transform="translate(74.291 0.571472)"/>
</clipPath>
</defs>
</svg>
