<svg width="97" height="17" viewBox="0 0 97 17" fill="none" xmlns="http://www.w3.org/2000/svg">
<path fill-rule="evenodd" clip-rule="evenodd" d="M34.4353 3.56742C41.0422 -2.36423 46.6744 0.87122 47.9741 2.48899L45.5913 5.94015C45.4921 5.86883 45.3803 5.77104 45.2517 5.6585C44.5374 5.03362 43.3037 3.9543 40.8256 4.43027C38.6228 4.85335 37.0593 6.40646 36.9264 8.63636C36.8104 10.584 37.2514 11.9797 39.4176 12.6268C41.6102 13.2818 44.2554 11.764 45.0497 11.009L46.6744 14.3524C45.7718 15.287 43.0032 17.4046 38.2262 16.725C34.4353 16.1858 32.7957 14.2445 32.2691 12.1954C31.4965 9.18894 31.8448 5.89315 34.4353 3.56742ZM5.84138 0.547735H2.26714C1.72559 0.511786 0.620819 0.849709 0.534171 2.48901C0.447523 4.12831 0.498068 11.5123 0.534171 14.9994C0.498056 15.5027 0.750758 16.5093 2.05048 16.5093H7.35769C6.16628 16.006 3.8701 14.1798 4.21669 10.9012C4.56328 7.62259 5.44423 2.6328 5.84138 0.547735ZM19.1635 0.547735L18.622 4.43027H25.2289V4.96951L18.0804 12.3032C17.5389 12.8784 16.4341 14.5249 16.3475 16.5093H30.8611C30.1751 15.5387 28.8032 13.4033 28.8032 12.6268H23.2793V12.1954L30.7527 4.53811C31.186 4.17863 32.0308 2.87729 31.9442 0.547735H19.1635ZM54.4727 0.547691H59.5633L62.596 16.725H58.2636L57.5054 14.3524H52.4148L51.1151 16.725H46.6744L54.4727 0.547691ZM64.2207 16.725L66.4952 0.547735L73.3187 0.54769C75.1239 0.54769 79.4924 1.08692 79.4924 4.43027C79.4924 7.2343 77.4345 9.53508 76.4597 10.1462V11.4404L78.9509 16.725C75.8715 16.725 73.0975 14.8641 71.9295 12.0148L71.6941 11.4404H69.6362L68.878 16.725H64.2207ZM82.9584 0.547735L80.4672 16.725H87.8323C90.1068 16.725 95.0458 15.3014 96.6055 9.60697C98.5551 2.48895 92.2731 0.547781 90.5401 0.547735H82.9584ZM87.1815 4.43031L86.2795 9.81895C86.0018 11.4781 87.2043 13.1101 88.8034 12.5877C90.1473 12.1485 91.3962 11.1856 91.7305 9.2835C92.2322 6.42895 91.0395 5.09928 90.0401 4.62315C89.6692 4.44647 89.2494 4.43034 88.8386 4.43033L87.1815 4.43031ZM73.5345 4.43028C72.4423 4.30233 70.7184 4.43031 70.7184 4.43031L70.2852 7.77359H72.8846C74.401 7.77359 75.3757 4.64598 73.5345 4.43028ZM56.4224 4.64595L57.5055 11.0091H53.498L56.4224 4.64595Z" fill="#1A3685"/>
<path d="M8.54785 0.682068H16.3462L14.3966 14.5946H10.0642C6.94486 14.7671 6.74268 11.2872 7.03151 9.52567L8.54785 0.682068Z" fill="#FF461A"/>
</svg>
